<?xml version="1.0" standalone="no"?>
<!DOCTYPE svg PUBLIC "-//W3C//DTD SVG 20010904//EN" "http://www.w3.org/TR/2001/REC-SVG-20010904/DTD/svg10.dtd">
<svg version="1.0" xmlns="http://www.w3.org/2000/svg"
    width="1024.000000pt" height="1024.000000pt" viewBox="0 0 1024.000000 1024.000000"
    preserveAspectRatio="xMidYMid meet">

    <g transform="translate(0.000000,1024.000000) scale(0.100000,-0.100000)"
        fill="#000000" stroke="none">
        <path
            d="M6350 8225 c-56 -21 -237 -87 -480 -175 -427 -154 -627 -227 -775
-284 -177 -67 -515 -193 -635 -236 -286 -104 -700 -265 -700 -272 0 -2 154 -3
343 -3 l342 0 85 33 c47 18 130 49 185 69 55 19 161 59 235 88 127 51 264 102
525 195 61 22 214 77 340 124 253 92 514 180 520 175 4 -5 63 -159 121 -316
25 -67 64 -168 87 -225 l42 -102 111 -1 c79 0 116 -4 128 -14 21 -17 20 -13
-8 94 -36 133 -250 724 -292 807 -29 56 -96 73 -174 43z" />
        <path
            d="M3302 7729 c-276 -26 -545 -192 -682 -419 -45 -74 -104 -244 -119
-340 -13 -84 -14 -2639 -1 -2766 24 -234 152 -481 322 -620 151 -124 272 -188
433 -230 92 -23 124 -26 395 -32 162 -4 896 -4 1630 -1 1457 6 1375 3 1556 64
107 37 279 126 337 177 52 44 132 141 190 228 20 30 55 111 78 180 l42 125 8
374 c4 205 9 374 11 376 2 1 28 -1 58 -6 30 -4 82 -8 116 -8 l61 -1 2 646 c1
475 -1 650 -10 660 -8 10 -40 14 -120 14 -60 0 -109 3 -109 8 0 4 -5 50 -10
102 -40 375 -205 634 -497 779 -156 78 -6 72 -2028 76 -1223 3 -1828 7 -1865
15 -68 13 -157 55 -170 81 -23 42 66 144 164 190 102 48 179 59 426 65 l225 6
80 33 c44 18 154 65 245 103 91 38 192 77 225 86 103 29 104 30 30 37 -100 9
-924 8 -1023 -2z m-452 -797 c65 -36 156 -67 227 -77 28 -3 867 -8 1864 -10
1395 -2 1823 -6 1854 -15 154 -47 305 -179 367 -320 34 -77 68 -228 68 -301
l0 -68 -662 -3 -663 -3 -70 -24 c-217 -72 -373 -217 -453 -420 -23 -59 -26
-80 -26 -201 -1 -116 2 -144 22 -200 62 -175 185 -319 337 -395 106 -53 135
-55 853 -55 l664 0 -5 -332 c-4 -346 -6 -367 -54 -498 -59 -163 -216 -306
-413 -376 -65 -23 -98 -28 -255 -35 -99 -4 -817 -9 -1595 -11 -1528 -3 -1501
-4 -1664 50 -102 33 -182 86 -281 187 -93 94 -135 160 -179 282 l-31 88 -3
1265 c-2 696 0 1325 3 1398 7 122 8 132 24 119 9 -8 41 -28 71 -45z m4662
-1382 c1 -187 2 -363 3 -390 l0 -50 -800 -1 c-886 -2 -848 -4 -942 63 -88 64
-136 149 -153 270 -24 174 53 309 226 394 l78 39 700 5 c386 3 743 6 794 8
l92 2 2 -340z" />
        <path
            d="M3074 6430 c-32 -13 -54 -55 -54 -104 0 -57 23 -86 76 -93 78 -10
139 47 132 125 -5 61 -86 100 -154 72z" />
        <path
            d="M3085 5201 c-70 -43 -70 -42 -70 -265 1 -200 1 -201 29 -264 46 -99
95 -124 163 -82 61 36 68 59 54 163 -7 51 -11 155 -9 232 3 157 -6 191 -62
220 -38 20 -69 19 -105 -4z" />
        <path
            d="M3427 4388 c-44 -68 -34 -117 37 -178 90 -78 197 -114 320 -109 78 4
87 6 115 33 36 35 48 84 31 127 -18 43 -45 57 -135 69 -109 15 -148 26 -230
66 -91 44 -104 44 -138 -8z" />
        <path
            d="M4164 4299 c-20 -6 -37 -21 -49 -43 -16 -29 -17 -40 -7 -73 6 -21 28
-54 47 -73 36 -35 37 -35 138 -38 123 -4 159 11 196 79 22 42 23 46 8 81 -27
63 -64 78 -192 77 -60 0 -124 -5 -141 -10z" />
        <path
            d="M6010 5629 c-118 -47 -135 -215 -30 -286 25 -17 47 -23 89 -23 177 0
237 211 86 297 -43 24 -102 29 -145 12z" />
        <path
            d="M6887 7719 c6 -8 23 -61 37 -119 15 -58 30 -118 34 -134 6 -24 15
-31 52 -40 177 -45 346 -207 406 -389 15 -45 53 -143 85 -219 70 -162 143
-367 159 -442 11 -52 23 -65 65 -66 14 0 11 482 -5 600 -16 129 -79 318 -132
400 -59 91 -208 237 -300 294 -98 61 -252 116 -343 123 -60 5 -68 4 -58 -8z" />
        <path
            d="M6055 7661 c-139 -57 -237 -93 -515 -192 -80 -28 -216 -81 -304 -118
l-158 -66 48 -8 c27 -4 324 -7 661 -5 l612 3 -6 25 c-3 14 -12 39 -19 55 -7
17 -33 89 -59 160 -59 163 -80 205 -103 204 -9 -1 -80 -27 -157 -58z" />
        <path
            d="M7643 4680 c-25 -10 -23 0 -50 -295 -29 -319 -22 -435 27 -435 21 0
58 71 84 160 24 80 40 324 32 463 l-8 117 -31 -1 c-18 0 -42 -4 -54 -9z" />
    </g>
</svg>